<svg xmlns="http://www.w3.org/2000/svg" viewBox="0 0 649.563 490.316" xmlns:v="https://vecta.io/nano"><path d="M502.096 241.192c2.22 0 2.22-3.62 0-3.62a1.81 1.81 0 0 0 0 3.62z" fill="#23849e"/><path d="M28.46 362.737c3.414 0 3.414-5.344 0-5.344s-3.414 5.344 0 5.344zm67.25 13.448c0-.517-.17-1.207-.17-1.724a3.56 3.56 0 0 0-3.072-2.414h-.17c.512.172 1.024.172 1.365.345-.754-.498-1.672-.683-2.56-.517a2.32 2.32 0 0 0-1.536 1.552c0 .345-.17.7-.17 1.034 0 .517.17.7.17 1.034l.683-2.758c-.68.685-1.05 1.62-1.024 2.586v.7a2.66 2.66 0 0 0 1.024 2.414c.62.66 1.484 1.034 2.4 1.034s1.77-.374 2.4-1.034c.528-.62.775-1.432.683-2.24zm9.56 20.343c.84-.045 1.656-.28 2.4-.7.7-.44 1.275-1.028 1.707-1.724a2.42 2.42 0 0 0 .512-1.552 4.97 4.97 0 0 0 0-2.241 4.07 4.07 0 0 0-2.048-2.414l1.195 1.207c-.554-1.085-1.682-1.756-2.9-1.724-.616-.073-1.235.114-1.707.517a2.39 2.39 0 0 0-1.195 1.38l2.048-1.552c-.707.17-1.355.527-1.877 1.034a4.12 4.12 0 0 0-1.024 1.9c.2-.315.306-.668.34-1.034 0 .172-.17.172-.17.345a3.02 3.02 0 0 1 .683-.862l-.17.172a3 3 0 0 0 .853-.69l-.17.172a2.41 2.41 0 0 1 1.024-.345h-.17c.34 0 .683-.172 1.024-.172h-.342a4.07 4.07 0 0 0-2.924 1.203c-.774.78-1.196 1.838-1.176 2.935.064 1.082.484 2.112 1.195 2.93.74.8 1.803 1.252 2.9 1.207zM70.106 419.63c.572.845 1.2 1.652 1.877 2.414v-.172a6.71 6.71 0 0 0-1.024-1.9 2.96 2.96 0 0 0-1.877-1.034l2.22 1.724a.6.6 0 0 0-.171-.345 3.51 3.51 0 0 0-1.365-1.379c-.562-.35-1.214-.53-1.877-.517a3.86 3.86 0 0 0-1.877.517 3.51 3.51 0 0 0-1.365 1.379.6.6 0 0 1-.171.345l2.22-1.724c-.707.17-1.355.527-1.877 1.034-.565.485-.93 1.162-1.024 1.9v.172l1.877-2.586c-.67.332-1.2.878-1.536 1.552-.5 1.014-.68 2.157-.512 3.276.503 1.845 2.187 3.12 4.1 3.1 1.9-.05 3.537-1.296 4.1-3.1a4.97 4.97 0 0 0 0-2.241l-.512-1.034a3.06 3.06 0 0 0-1.195-1.379zm14.85-4.138v.172c0-.172.17-.172 0-.172a1.75 1.75 0 0 0-.171.517c0 .345.17.517.17.7 0-.172-.17-.172-.17-.345.1.84.713 1.528 1.536 1.724a2.19 2.19 0 0 0 2.731-1.552c.166-.57.097-1.182-.2-1.7a2.21 2.21 0 0 0-1.345-1.058 2.92 2.92 0 0 0-1.707.172c-.17.517-.683 1.034-.853 1.552zm-78 67.583a7.45 7.45 0 0 0-1.195-1.034c.17.172.512.345.683.517l1.024 1.552c0-.172-.17-.345-.17-.517a7.01 7.01 0 0 0-.853-1.552 3.35 3.35 0 0 0-2.39-1.035 2.88 2.88 0 0 0-1.707.517 3.7 3.7 0 0 0-1.536 2.069c0 .172-.17.345-.17.517l1.024-1.552c.17-.172.512-.345.683-.517a2.3 2.3 0 0 0-1.195 1.034 4.12 4.12 0 0 0-1.024 1.9 4.97 4.97 0 0 0 0 2.241c.503 1.845 2.187 3.12 4.1 3.1a4.68 4.68 0 0 0 3.755-2.069 4.81 4.81 0 0 0 .508-2.24 7.97 7.97 0 0 0-1.536-2.931zm24.75-31.55c3.926 0 3.926-6.207 0-6.207-4.1 0-4.1 6.207 0 6.207zm88.24-39.48c-.17 0-.17-.172-.34-.172a3.05 3.05 0 0 0-1.536-.69 2.12 2.12 0 0 0-1.536.7c-.17 0-.17.172-.34.172-.634.7-.9 1.664-.683 2.586a2.68 2.68 0 0 0 4.95.69 2.87 2.87 0 0 0-.512-3.276zm6.655-12.412c3.755 0 3.755-5.862 0-5.862s-3.755 5.862 0 5.862zm-2.217-13.104c3.414 0 3.414-5.345 0-5.345-3.414-.172-3.414 5.345 0 5.345zM3.884 279.466a2.41 2.41 0 0 0 2.247-1.474c.38-.902.18-1.944-.508-2.64s-1.73-.906-2.634-.534-1.495 1.255-1.495 2.233c.02 1.315 1.075 2.38 2.4 2.414zM27.436 126.2c2.73 0 2.73-4.3 0-4.3a2.15 2.15 0 0 0-2.155 2.155c0 1.2.965 2.155 2.155 2.155zm-2.218 298.774c3.072 0 3.072-4.827 0-4.827s-3.072 4.827 0 4.827zm22.188 4.656c0-.172 0-.172-.17-.345v-.172a2 2 0 0 0-.853-1.207h-.17c-.453-.347-1.083-.347-1.536 0h-.17a4.56 4.56 0 0 0-.853 1.034v.172c0 .172 0 .172-.17.345a2.11 2.11 0 0 0 1.877 2.586c.62.03 1.22-.228 1.62-.7s.56-1.106.428-1.713zm8.024-14.655c0 .345.17.862.17 1.207v-.862a.6.6 0 0 1 .171-.345l.34-.345c.17 0 .17-.172.34-.172a3 3 0 0 0-.853.69l-.17.172c-.512.862.34 1.9 1.195 2.07a1.81 1.81 0 0 0 1.877-.517c.17-.345.512-.7.512-1.034s.17-.7.17-1.034a1.97 1.97 0 0 0-.512-1.379 2.06 2.06 0 0 0-2.731 0c-.34.517-.683 1.034-.512 1.552z" fill="#513670"/><path d="M18.903 405.493c2.9 0 2.9-4.655 0-4.655a2.33 2.33 0 0 0-2.28 2.327 2.33 2.33 0 0 0 2.28 2.327z" fill="#23849e"/><g fill="#513670"><path d="M123.36 328.256a3.68 3.68 0 0 0 2.39-.862 2.94 2.94 0 0 0 1.024-1.724 2.5 2.5 0 0 0-.683-2.586l.34.345c.17.345.17.862.34 1.207.014-.614-.165-1.217-.512-1.724-.365-.687-1.1-1.093-1.877-1.034a2.6 2.6 0 0 0-1.877 1.034c-.17.172-.17.517-.34.7v.172a.9.9 0 0 1 .341-.69 3.57 3.57 0 0 0 1.024-.69 3.13 3.13 0 0 0-1.707 1.207c.001.046-.017.1-.05.122s-.076.05-.122.05c.17-.172.17-.345.34-.345.512-.345.512-.345.34-.345.17-.172.34-.172.683-.345h-.34a1.02 1.02 0 0 0 .683-.172h-.17a2.64 2.64 0 0 0-2.56 2.586c.17 1.724 1.365 3.1 2.73 3.1zm301.248-300.5c.34-.172.512-.172.853-.345a4.56 4.56 0 0 0 .853-1.034c-.17.172-.17.345-.34.517.37-.426.497-1 .34-1.552 0-.172 0-.172-.17-.345a.6.6 0 0 0-.171-.345c-.17-.172-.17-.345-.34-.345-.257-.176-.596-.176-.853 0-.17.172-.34.172-.512.517.001.046-.017.1-.05.122s-.076.05-.122.05l.17-.172c-.17.172.34-.172.17-.172.34-.172.34-.172.17-.172h.34c.17 0 .512.172.683.172s.17.172.34.172c-.17-.172-.17-.345-.512-.345-.34-.172-.512-.172-.853-.345a1.91 1.91 0 0 0-1.365.172c-.535.334-.857.922-.853 1.552a1.57 1.57 0 0 0 .512 1.207c.354.58 1.048.862 1.707.7zM134.282 199.298c0-.172 0-.172-.17-.345v-.172a5.06 5.06 0 0 0-1.195-2.07 4.09 4.09 0 0 0-2.048-1.207 4.26 4.26 0 0 0-2.4 0l-1.024.517a5.45 5.45 0 0 0-1.707 1.724 6.29 6.29 0 0 0-.512 1.207c0 .172 0 .172-.17.345a4.49 4.49 0 0 0 .512 3.62 4.95 4.95 0 0 0 4.1 2.414 4.64 4.64 0 0 0 3.243-1.379c1.348-1.137 1.885-2.97 1.365-4.655zm5.12 175a5.38 5.38 0 0 0 3.926-1.552c2.048-2.247 2.048-5.684 0-7.93a5.74 5.74 0 0 0-7.85 0c-2.048 2.247-2.048 5.684 0 7.93a6.18 6.18 0 0 0 3.926 1.552zm4.267-114.993c3.414 0 3.414-5.345 0-5.345s-3.414 5.345 0 5.345zm31.917-41.195c-.17-.172-.512-.172-.683-.345l3.072 3.1v-.172a4.15 4.15 0 0 0-1.195-2.07 4.74 4.74 0 0 0-3.413-1.376h-.17a4.83 4.83 0 0 0-4.759 4.828 4.83 4.83 0 0 0 4.759 4.827h.17a3.89 3.89 0 0 0 2.39-.69c1.14-.597 1.954-1.672 2.22-2.93v-.172l-3.072 3.1c.17-.172.512-.172.683-.345a3.99 3.99 0 0 0 3.072-3.965 4.63 4.63 0 0 0-.512-2.069 4.57 4.57 0 0 0-2.56-1.724zm23.213-46.903a4.08 4.08 0 0 0 2.7-2.31 4.07 4.07 0 0 0-.14-3.55 2.72 2.72 0 0 0-2.386-1.379c-.976.034-1.872.55-2.4 1.38-.34.345-.34.862-.512 1.38.17-.172.17-.517.34-.7 0 .172-.17.172-.17.345l.342-.345a2.36 2.36 0 0 1 .683-.517h-.17c.17-.172.512-.172.683-.345h-.17c.295.027.6-.033.853-.172h-.34c.295-.027.6.033.853.172h-.17a2.97 2.97 0 0 0-2.39.345 2.93 2.93 0 0 0-1.538 2.759 3.1 3.1 0 0 0 3.926 2.931zm-49.157 54.996v-.517a1.92 1.92 0 0 0 0-1.379 2.47 2.47 0 0 0-1.707-1.724 2.35 2.35 0 0 0-1.536 0h-.345a3.09 3.09 0 0 0-2.048 2.07 2.75 2.75 0 0 0 3.414 3.448 2.83 2.83 0 0 0 2.219-1.9zm18.605-22.413a2.24 2.24 0 1 0-2.219-2.241 2.16 2.16 0 0 0 2.219 2.241zm11.605 163.785v-1.207c0-.517-.17-.862-.17-1.38a5.06 5.06 0 0 0-1.195-2.07 3.99 3.99 0 0 0-5.632 0 3.61 3.61 0 0 0-.683 1.034 6.44 6.44 0 0 0-.683 2.414c0 .517-.17.862 0 1.207a5.4 5.4 0 0 0 1.195 3.1 4.09 4.09 0 0 0 3.072 1.207 4.88 4.88 0 0 0 3.072-1.207 6.1 6.1 0 0 0 1.024-3.1zm45.742-18.275c2.167.022 4.132-1.266 4.976-3.262s.4-4.303-1.124-5.843-3.827-2.007-5.83-1.183-3.312 2.776-3.312 4.943c0 2.93 2.36 5.315 5.3 5.345zm-22.187-32.412l3.243 3.276a6.14 6.14 0 0 0-.512-2.414 3.58 3.58 0 0 0-2.56-1.9c-1.068-.324-2.223-.193-3.192.362s-1.666 1.484-1.928 2.57a4.11 4.11 0 0 0 .347 3.205c.547.977 1.47 1.687 2.553 1.967a4.3 4.3 0 0 0 3.243-.345c.652-.486 1.227-1.067 1.707-1.724a25.64 25.64 0 0 0-2.9 1.724c.295.027.6-.033.853-.172a3.71 3.71 0 0 0 1.365-.862c.654-.632 1.024-1.503 1.024-2.413a3.36 3.36 0 0 0-1.024-2.413c-.17-.172-.512-.345-.683-.517a4.04 4.04 0 0 0-1.536-.345zm5.802 36.204a3.61 3.61 0 0 0-.683-1.034v2.93c.17-.172.17-.345.34-.345a2.47 2.47 0 0 0 .341-1.034 1.97 1.97 0 0 0-.512-1.379l-.512-.517a3.98 3.98 0 0 0-1.365-.345 2.73 2.73 0 0 0-1.877.862 3.61 3.61 0 0 0-.683 1.034 3.33 3.33 0 0 0 0 3.1 3.17 3.17 0 0 0 2.56 1.552 2.81 2.81 0 0 0 2.56-1.552 4.32 4.32 0 0 0-.171-3.276zM406.004 55.34a11.68 11.68 0 0 0-1.365.517c-.947.576-1.624 1.507-1.878 2.586l1.707-2.24a.59.59 0 0 0-.34.172c-1.032.616-1.664 1.73-1.664 2.93s.632 2.315 1.664 2.93a.59.59 0 0 1 .34.172l-1.707-2.24a4.47 4.47 0 0 0 1.195 1.9c.614.6 1.382 1.017 2.22 1.207a4.3 4.3 0 0 0 5.462-4.134c-.34-2.414-3.072-4.827-5.632-3.793zm-213.35 65.515c2.73 0 2.73-4.3 0-4.3s-2.73 4.3 0 4.3zm43.866-29.31c2.56 0 2.56-3.965 0-3.965-.727-.028-1.4.343-1.782.968a1.98 1.98 0 0 0 0 2.028c.372.625 1.056.997 1.782.968zm-49.498 48.274l-.34.345a3.47 3.47 0 0 0 0 4.655l.34.345a3.52 3.52 0 0 0 5.974-2.586 3.86 3.86 0 0 0-1.707-3.1 3.14 3.14 0 0 0-4.267.345zM155.446 170c2.22 0 2.22-3.62 0-3.62a1.81 1.81 0 0 0 0 3.62zM560.8 94.132c1.817.018 3.466-1.062 4.174-2.736s.335-3.6-.943-4.9-3.2-1.683-4.9-.992-2.778 2.33-2.777 4.147a4.32 4.32 0 0 0 1.25 3.202c.842.85 1.995 1.312 3.2 1.28zM451.746 67.237l-.512-1.38a2.77 2.77 0 0 0-2.731-2.069c-1.26.03-2.362.863-2.73 2.07l-.512 1.38c-.286.972-.1 2.022.504 2.835a3.23 3.23 0 0 0 2.568 1.303c2.4 0 4.1-2.24 3.414-4.138zM420 82.064c2.73 0 2.73-4.3 0-4.3s-2.73 4.3 0 4.3zM65.844 321.532c.978.01 1.866-.572 2.247-1.473a2.42 2.42 0 0 0-.508-2.64c-.688-.697-1.73-.906-2.634-.534s-1.496 1.254-1.496 2.232a2.25 2.25 0 0 0 2.39 2.414zm29.864-6.378a3.62 3.62 0 1 0-3.584-3.62 3.52 3.52 0 0 0 3.584 3.62zM84.956 214.987a5.75 5.75 0 0 0 1.707-.172 3.29 3.29 0 0 0 1.536-.862c.68-.685 1.05-1.62 1.024-2.586a3.96 3.96 0 0 0-.512-1.9c-.17-.172-.34-.517-.512-.7a3.48 3.48 0 0 0-1.536-.862 5.75 5.75 0 0 0-1.707-.172c-1.984.022-3.582 1.636-3.584 3.62a3.52 3.52 0 0 0 3.584 3.62zM440.3 126.2h-.34a3.05 3.05 0 0 0-2.048 1.552v.172a3.33 3.33 0 0 0 0 3.1v.172c.474.747 1.2 1.298 2.048 1.552h.34c.295-.027.6.033.853.172a2.88 2.88 0 0 0 1.707-.517 3.34 3.34 0 0 0 1.707-2.931 3.42 3.42 0 0 0-1.024-2.414 3.29 3.29 0 0 0-1.536-.862 2.87 2.87 0 0 0-1.707 0zm144.907 45.686a3.62 3.62 0 1 0-3.584-3.62 3.87 3.87 0 0 0 3.584 3.62zM528.722 48.273c.34.172.512.172.853.345a5.6 5.6 0 0 0 2.39 0l1.024-.517c.67-.332 1.2-.878 1.536-1.552a5.16 5.16 0 0 0 0-4.482c-.325-.674-.866-1.22-1.536-1.552a4.69 4.69 0 0 0-3.414-.517c-.34.172-.512.172-.853.345-.707.17-1.356.527-1.878 1.034a4.52 4.52 0 0 0-1.195 2.931 4.63 4.63 0 0 0 .512 2.069c.6.918 1.508 1.592 2.56 1.9zm84.998 106.03c-.17.622-.17 1.278 0 1.9a3.69 3.69 0 0 0 4.438 2.586 3.87 3.87 0 0 0 2.56-2.586 4.06 4.06 0 0 0-.853-3.62 3.74 3.74 0 0 0-3.584-.862c-1.23.38-2.2 1.35-2.56 2.586zM546.473 168.6a8.28 8.28 0 0 0 1.195-.517 2.4 2.4 0 0 0 1.195-2.069c-.045-.84-.5-1.6-1.195-2.07-.34-.172-.853-.345-1.195-.517-.702-.14-1.43-.018-2.048.345a2.69 2.69 0 0 0-1.365 2.24 3.64 3.64 0 0 0 .683 1.9 2.84 2.84 0 0 0 2.73.7zm82.78 61.386c-.188.023-.376-.04-.512-.172-.512-.172-1.195-.172-1.707-.345.512 0 1.024.172 1.365.172.34.172.853.345 1.195.517a4.97 4.97 0 0 0-2.731-.69 5.27 5.27 0 0 0-3.755 1.552c-.677.657-1.15 1.495-1.365 2.414a5.78 5.78 0 0 0 .512 4.138c.5.85 1.204 1.56 2.048 2.07a5.71 5.71 0 0 0 2.9.862 8.49 8.49 0 0 0 2.048-.345 4.86 4.86 0 0 0 2.39-1.38c.992-1.012 1.544-2.376 1.536-3.793a5.1 5.1 0 0 0-.683-2.758 4.92 4.92 0 0 0-3.243-2.24zm6.143-21.55h.683c.34 0 .683-.172 1.024-.172a3.29 3.29 0 0 0 1.536-.862 3.78 3.78 0 0 0 0-5.172c-.17-.172-.512-.345-.683-.517-.562-.35-1.214-.53-1.877-.517h-.683a3.46 3.46 0 0 0-2.56 1.034 3.78 3.78 0 0 0 0 5.172 3.46 3.46 0 0 0 2.56 1.034zm-24.918 10.86a1.02 1.02 0 0 1-.683-.172c.34.172.512.345.683.172a20.63 20.63 0 0 0 1.365 3.448 1.57 1.57 0 0 1 .171-.862 2.8 2.8 0 0 0-.512-1.552c-.17-.172-.34-.517-.512-.7a3.71 3.71 0 0 0-1.365-.862c-.262-.14-.558-.2-.853-.172l2.56 1.552c.17.172.17.517.34.7v-.172c-.186-.8-.677-1.472-1.365-1.9a2.52 2.52 0 0 0-1.536-.345 4.94 4.94 0 0 0-1.536.345c-.422.254-.774.6-1.024 1.034-.17.345-.34.517-.34.862 0 .172-.17.7-.17 1.034.34-.7.512-1.38.853-2.24a2.3 2.3 0 0 0-.512.7c-.247.5-.42 1.012-.512 1.552a2.8 2.8 0 0 0 .512 1.552 4.01 4.01 0 0 0 1.195 1.207 2.73 2.73 0 0 0 1.536.517c.295.027.6-.033.853-.172a2.34 2.34 0 0 0 1.365-.862c-1.024.172-1.877.517-2.9.7.34 0 .683.172 1.024.172s.853-.172 1.195-.172a2.67 2.67 0 0 0 1.195-.7 2.87 2.87 0 0 0 .853-2.069c-.01-.48-.128-.95-.34-1.38l-.512-.517c0-.172-.512-.517-1.024-.7z"/><path d="M643.6 164.644a4.47 4.47 0 0 0-1.195 1.9 3.61 3.61 0 0 1 .683-1.034l-.17.172c-.853.925-.853 2.35 0 3.276l.17.172a3.61 3.61 0 0 0-.683-1.034 3.28 3.28 0 0 0 1.195 1.9 3.6 3.6 0 0 0 3.414.862c1.538-.434 2.6-1.85 2.56-3.448a3.86 3.86 0 0 0-1.707-3.1c-.562-.35-1.214-.53-1.877-.517-.892-.14-1.794.184-2.4.862zM461.475 27.757a6.98 6.98 0 0 0-1.878.172 3.42 3.42 0 0 0-1.365.69 4.01 4.01 0 0 0-1.195 1.207c-.347.507-.526 1.1-.512 1.724a3.35 3.35 0 0 0 .512 1.724 4.01 4.01 0 0 0 1.195 1.207c.34.345.853.345 1.365.517.6.227 1.248.287 1.878.172a3.46 3.46 0 0 0 2.56-1.034 3.82 3.82 0 0 0 1.024-2.586 3.53 3.53 0 0 0-1.024-2.586 3.06 3.06 0 0 0-2.56-1.207zM417.78 93.27h-.34a4.09 4.09 0 0 0-2.048 1.207 3.78 3.78 0 0 0 0 5.172 4.09 4.09 0 0 0 2.048 1.207h.34c.34 0 .683.172 1.024.172a4.51 4.51 0 0 0 2.048-.517c1.23-.72 2.004-2.023 2.048-3.448a4.06 4.06 0 0 0-1.195-2.931 3.55 3.55 0 0 0-1.707-1.034 8.93 8.93 0 0 0-2.219.172zm-285.888 252.4c3.584 0 3.584-5.7 0-5.7s-3.584 5.7 0 5.7zm8.705 1.206a2.1 2.1 0 0 0-1.365-.69c-.512 0-.853.345-1.365.7-.52.483-.72 1.22-.512 1.9a1.77 1.77 0 0 0 3.243.517 1.89 1.89 0 0 0 .171-.862c.512-.7.34-1.207-.17-1.552zm-5.632-16.55v-.345c-.17-.345-.17-.7-.512-.862a1.93 1.93 0 0 0-1.365-.517 2.41 2.41 0 0 0-1.024.345c-.512.172-.683.7-.853 1.207v.172c0 .172 0 .172-.17.345a2.33 2.33 0 0 0 .17 1.552c.365.687 1.1 1.093 1.877 1.034a2.05 2.05 0 0 0 1.536-.7 2.66 2.66 0 0 0 .341-2.241zm-27.65 27.24c2.4 0 2.4-3.793 0-3.793s-2.4 3.793 0 3.793zm4.61-16.895c-.001.046.017.1.05.122s.076.05.122.05c.336.735 1.07 1.207 1.878 1.207s1.542-.472 1.877-1.207c-.001-.046.017-.1.05-.122s.076-.05.122-.05a2.58 2.58 0 0 0 0-2.241c-.395-.656-1.1-1.05-1.877-1.034-.776-.06-1.512.347-1.877 1.034a1.52 1.52 0 0 0-.341 2.241zm13.996 19.3a3.82 3.82 0 0 0-1.024-2.586c-.34-.172-.512-.517-.853-.7l.342.344a2.27 2.27 0 0 0-2.56-1.034c-.572.158-1.056.54-1.345 1.058s-.358 1.13-.2 1.7a8.45 8.45 0 0 0 .512 1.207c0 .172.17.172.17.345.17.517-.17-.7 0 0 .025-.243-.035-.487-.17-.7v.172c-.02.642.226 1.263.678 1.72s1.07.707 1.712.695a2.24 2.24 0 0 0 1.915-.45c.535-.437.836-1.1.816-1.8zm-22.872-20.345v-.7a1.47 1.47 0 0 0-.34-1.207 2.07 2.07 0 0 0-3.584 0 3.22 3.22 0 0 0-.342 1.207v.7a2.09 2.09 0 0 0 2.048 2.07c1.164-.01 2.128-.908 2.22-2.07zm21.168-28.102a1.57 1.57 0 0 0-.171-.862 2.31 2.31 0 0 0-.512-1.38 2.06 2.06 0 0 0-2.731 0 1.97 1.97 0 0 0-.515 1.383 1.57 1.57 0 0 1-.171.862 1.97 1.97 0 0 0 .512 1.379 2.06 2.06 0 0 0 2.731 0 1.42 1.42 0 0 0 .853-1.379zm6.3-38.273c0-.172-.17-.517-.17-.7-.173-.804-.884-1.38-1.707-1.38s-1.534.575-1.707 1.38c0 .172-.17.517-.17.7-.113.522-.053 1.067.17 1.552a2.26 2.26 0 0 0 1.707 1.034 1.93 1.93 0 0 0 1.365-.517 2.4 2.4 0 0 0 .512-2.069zM523.943 66.375c0-.172-.17-.172-.17-.345a2.06 2.06 0 0 0-2.731 0c0 .172-.17.172-.17.345a3.61 3.61 0 0 0-.683 1.034 1.49 1.49 0 0 0 0 1.207 2.36 2.36 0 0 0 2.219 1.724 2.6 2.6 0 0 0 2.048-1.207 2.51 2.51 0 0 0 .341-1.207v-.7c-.34-.172-.512-.517-.854-.862zm39.94 51.55h-.342c.295-.027.6.033.853.172 0-.172-.17-.172-.512-.172.34.172.512.172.853.345l1.365 1.9a1.57 1.57 0 0 0 .171.862 1.57 1.57 0 0 1-.171.862c-.17.172-.17.517-.34.7.17-.172.17-.517.34-.7a2.95 2.95 0 0 0 0-1.724c-.186-.8-.677-1.472-1.365-1.9l1.024 4.138a.37.37 0 0 1 .341-.345 2.33 2.33 0 0 0 .34-1.552 5.13 5.13 0 0 0-.34-1.552 3.42 3.42 0 0 0-1.707-1.38 2.35 2.35 0 0 0-1.536 0 2.67 2.67 0 0 0-1.195.7l-.34.345c.683-.345 1.365-.517 2.048-.862a4.94 4.94 0 0 0-1.536.345c-.423.253-.776.608-1.024 1.034a3.17 3.17 0 0 0 .512 3.793 3.71 3.71 0 0 0 1.365.862 2.88 2.88 0 0 0 1.707 0h-1.536a2.35 2.35 0 0 0 1.536 0c.295.027.6-.033.853-.172a5.09 5.09 0 0 0 1.365-.69c1.138-1.144 1.138-2.994 0-4.138l-.512-.517-2.22-.345zm-3.067-6.897c2.56 0 2.56-3.965 0-3.965s-2.56 3.965 0 3.965zm6.992-61.03c-.17 0-.17-.172-.34-.172a2.53 2.53 0 0 0-1.536-.69 2.05 2.05 0 0 0-1.536.7c-.17 0-.17.172-.34.172a2.58 2.58 0 0 0-.683 2.414 2.74 2.74 0 0 0 2.39 1.9 2.91 2.91 0 0 0 2.219-1.207 2.21 2.21 0 0 0-.171-3.1zm-494.8 49.998c-.17 0-.34-.172-.512-.345a.77.77 0 0 0-.853 0 .5.5 0 0 1-.34.172 1.89 1.89 0 0 0-.853 2.07 1.74 1.74 0 0 0 3.414-.517 1.54 1.54 0 0 0-.853-1.38zm75.1 46.72a4.08 4.08 0 0 0-.341-2.069 2.08 2.08 0 0 0-.853-.862 2.45 2.45 0 0 0-1.195-.345 3.14 3.14 0 0 0-1.195.345 2.08 2.08 0 0 0-.853.862 4.08 4.08 0 0 0-.341 2.069 3.66 3.66 0 0 0 .683 1.724 2.46 2.46 0 0 0 3.414 0 3.66 3.66 0 0 0 .683-1.724zM48.1 163.44c-.17-.345-.17-.517-.34-.862.001-.046-.017-.1-.05-.122s-.076-.05-.122-.05c.17.172 0 .172 0 0-.17-.517-.17-.862-.512-1.207s-.853-.345-1.024 0c-.34.345-.34.7-.512 1.207v.172c0 .345.17-.172 0 0-.17.345-.34.517-.34.862-.235.64-.02 1.36.527 1.768s1.298.408 1.845 0 .762-1.127.527-1.768zm70.83-57.757l-.34-.345a1.94 1.94 0 0 0-1.707-1.035 1.94 1.94 0 0 0-1.707 1.035l-.34.345a2.97 2.97 0 0 0 0 2.414c.416.742 1.2 1.203 2.05 1.207a2.6 2.6 0 0 0 2.046-1.207c.513-.723.513-1.7 0-2.414zm372.423 149.302c3.414 0 3.414-5.344 0-5.344s-3.414 5.344 0 5.344zm-19.116 3.103a1.38 1.38 0 1 0 0-2.758c-1.877-.172-1.877 2.758 0 2.758zm112.995-16.723c2.56 0 2.56-3.965 0-3.965s-2.56 3.965 0 3.965zm30.718-72.583a3.83 3.83 0 0 0 .171-1.379c.047-.378-.078-.758-.34-1.034-.27-.265-.648-.392-1.024-.345-.512 0-.853.172-1.365.172a1.87 1.87 0 0 0-.853 3.1c1.195 1.207 3.072.862 3.414-.517zm-15.703-21.55v-.345a2.51 2.51 0 0 0-1.024-1.552h-.17a2.15 2.15 0 0 0-2.048 0h-.17a2.51 2.51 0 0 0-1.024 1.552v.345a1.99 1.99 0 0 0 .17 1.724c.416.74 1.198 1.202 2.048 1.207a2.18 2.18 0 0 0 1.707-.69 1.5 1.5 0 0 0 .512-1.034 1.47 1.47 0 0 0 0-1.207zm-50.18-72.578c4.438 0 4.438-6.9 0-6.9s-4.438 6.9 0 6.9zM553.3 55.34c1.536 0 1.536-2.586 0-2.586-.714 0-1.293.58-1.293 1.293s.58 1.293 1.293 1.293zM214.16 303.257c-.34-.172-.683-.517-1.024-.517-.406-.01-.8.184-1.024.517-.34.172-.512.517-.853.862a2.06 2.06 0 0 0-.171 1.724c.324.87 1.122 1.476 2.048 1.552.962.027 1.814-.62 2.048-1.552a1.49 1.49 0 0 0 0-1.207c0-.172-.17-.345-.17-.517-.237-.33-.525-.62-.853-.862zm15.873-37.583c.784-.035 1.4-.68 1.4-1.466s-.617-1.43-1.4-1.465c-.784.035-1.4.68-1.4 1.465a1.47 1.47 0 0 0 1.4 1.466zm-125.8-203.612a1.55 1.55 0 0 0 1.473-1.55 1.55 1.55 0 0 0-1.473-1.55 1.55 1.55 0 0 0-1.473 1.55 1.55 1.55 0 0 0 1.473 1.55zm-9.388 8.45c-.184-.32-.414-.6-.683-.862a1.03 1.03 0 0 0-1.365 0 3.02 3.02 0 0 0-.683.862c-.402.67-.26 1.53.334 2.035s1.467.505 2.062 0 .736-1.366.334-2.035zM88.2 51.893a2.24 2.24 0 1 0-2.219-2.241 2.27 2.27 0 0 0 2.219 2.241zm133.298 20.69c2.9 0 2.9-4.655 0-4.655s-2.9 4.655 0 4.655zm3.927-58.962a1.28 1.28 0 0 1-.683.172h.512l.17-.172c0 .172 0 .345.17.345l.17.172c.34.345.17.172.17 0q-.512-.26-.512-.517c-.34-.517-1.024-.517-1.195-.172s-.512.517-.512.862c-.113.465-.052.956.17 1.38a2.26 2.26 0 0 0 1.707 1.034 1.6 1.6 0 0 0 2.048-1.552c-.17-1.034-1.365-1.9-2.22-1.552zm26.967 5.516c2.22 0 2.22-3.62 0-3.62s-2.22 3.62 0 3.62z"/></g><path d="M49.796 253.26a2.55 2.55 0 0 0 1.365 1.9 2.41 2.41 0 0 0 1.024.345 2.7 2.7 0 0 0 2.56-.345 3.34 3.34 0 0 0 1.707-2.931 3.44 3.44 0 0 0-3.41-3.451c-.903.01-1.765.38-2.4 1.034a3.62 3.62 0 0 0-.853 3.448zm499.237 17.758c4.78 0 4.78-7.413 0-7.413s-4.78 7.413 0 7.413zM190.436 349.3c-.17 0-.34-.172-.512-.172l2.048 1.552a3.08 3.08 0 0 0-1.536-1.379 1.03 1.03 0 0 0-1.024-.517 4.68 4.68 0 0 0-1.536-.172 4.82 4.82 0 0 0-3.755 1.724 3.73 3.73 0 0 0 .853-.69c-1.652.984-2.522 2.888-2.186 4.78a4.63 4.63 0 0 0 3.7 3.736c1.9.356 3.802-.496 4.803-2.138a4.68 4.68 0 0 0-.683-5.517c.34.7.853 1.38 1.195 2.07 0 .345.17.862.17 1.207v-.174c0 .345-.17.862-.17 1.207v-.172l-.512 1.034c-.001-.046.017-.1.05-.122s.076-.05.122-.05c-.17.345-.512.517-.683.862l.17-.172a3 3 0 0 0-.853.69c.17 0 .17-.172.34-.172a3.76 3.76 0 0 0 1.536-1.724l-2.048 1.552c.17 0 .34-.172.512-.172a3.52 3.52 0 0 0 2.39-3.276 3.58 3.58 0 0 0-2.389-3.793z" fill="#23849e"/><path d="M57.647 95.5a13.16 13.16 0 0 1-12.971-12.585C44.492 89.95 38.73 95.54 31.704 95.5a13.16 13.16 0 0 1 12.972 12.586c.244-6.997 5.97-12.553 12.97-12.586zm553.683 97.064a13.16 13.16 0 0 1-12.971-12.585c-.184 7.024-5.946 12.614-12.972 12.585a13.16 13.16 0 0 1 12.972 12.585c.184-7.024 5.946-12.614 12.972-12.585zm-498.212-58.79c-16.842-.085-30.583-13.508-31.063-30.343-.48 16.836-14.222 30.26-31.064 30.343 16.842.084 30.584 13.507 31.064 30.343.543-16.808 14.248-30.195 31.064-30.343h-1.028c.345.172.686 0 1.027 0z" fill="#5b409b"/><path d="M353.776 2.414a1.21 1.21 0 0 0 1.159-1.207A1.21 1.21 0 0 0 353.776 0a1.21 1.21 0 0 0-1.159 1.207 1.21 1.21 0 0 0 1.159 1.207zm151.56 12.758a1.38 1.38 0 0 0-2.39 0c-.512.345-.512 1.207-.512 1.724a1.7 1.7 0 0 0 1.707 1.207 1.79 1.79 0 0 0 1.536-.862 1.57 1.57 0 0 0 .171-.862 1.35 1.35 0 0 0-.512-1.207zm-347.16 368.253c-.295.027-.6-.033-.853-.172.34.172.853.517 1.195.7a2.36 2.36 0 0 0-.683-.517c-.4-.274-.883-.396-1.365-.345a3.19 3.19 0 0 0-1.365.345 1.55 1.55 0 0 0-1.024 1.034 2.09 2.09 0 0 0-.341 1.379c.01.48.128.95.34 1.38a1.55 1.55 0 0 0 1.024 1.034c.4.274.883.396 1.365.345a3.19 3.19 0 0 0 1.365-.345c.17-.172.512-.345.683-.517-.34.172-.853.517-1.195.7.34 0 .512-.172.853-.172a2.67 2.67 0 0 0 1.195-.7 2.78 2.78 0 0 0 .853-1.9 4.09 4.09 0 0 0-.341-1.379 3.24 3.24 0 0 0-1.707-.862z" fill="#23849e"/></svg>
